<?xml version="1.0" encoding="UTF-8"?><svg id="_レイヤー_5" xmlns="http://www.w3.org/2000/svg" viewBox="0 0 900.55 511.79"><defs><style>.cls-1{fill:#040000;}.cls-2{fill:#fff;}.cls-3{fill:#dfcb1e;}.cls-4{fill:#231815;}</style></defs><path class="cls-1" d="M109.13,180.95c1.92,0,14.49,3.85,16.93,4.72,1.22,.53,3.14,1.05,3.14,2.62s-1.04,1.93-2.26,2.27c-2.1,.53-2.45,.88-2.97,2.1-3.84,13.62-7.17,27.24-11.35,40.67-2.63,8.2-5.25,16.42-8.03,24.62-.18,.36-.36,.87-.36,1.21,0,2.27,1.75,2.99,3.67,3.16h20.26c6.98,0,13.79-.53,20.77-.53,4.36,0,4.19,2.26,4.19,9.08s.17,9.07-4.19,9.07c-6.98,0-13.79-.34-20.77-.34H24.97c-6.98,0-13.79,.34-20.77,.34C-.34,279.96,0,277.51,0,270.89s-.34-9.08,4.19-9.08c6.98,0,13.79,.53,20.77,.53h56.23c3.5,0,5.23-.88,6.28-4.19,8.39-25.32,14.15-47.14,18.85-73.33,.36-1.75,.71-3.85,2.8-3.85Zm-18.34-23.2h30.21c6.81,0,13.45-.36,20.26-.36,4.54,0,4.18,2.09,4.18,9.08,0,6.63,.36,8.9-4.18,8.9-6.64,0-13.45-.36-20.26-.36H32.83c-6.81,0-13.45,.36-20.26,.36-4.54,0-4.18-2.27-4.18-8.9,0-6.99-.36-9.08,4.18-9.08,6.81,0,13.45,.36,20.26,.36h57.96Zm-40.84,95.32c-4.36,0-4.36-2.63-5.08-6.28-3.14-18.87-7.15-33.35-13.43-51.34-.53-1.39-1.22-3.67-1.22-5.06,0-2.97,2.97-3.84,5.23-4.55,2.1-.68,5.59-1.56,7.69-1.56,2.26,0,3.31,.88,4.36,2.79,2.45,5.06,7.32,23.4,8.9,29.68,1.22,5.25,5.94,25.68,5.94,30.04,0,4.88-9.44,6.28-12.4,6.28Z"/><path class="cls-1" d="M255.37,146.03c0,1.22-.7,1.93-1.56,2.62-2.45,2.1-2.8,3.85-3.67,7.17-.36,1.05-.53,2.1-1.05,3.5-.36,1.22-1.05,3.14-1.05,4.36,0,1.39,1.05,2.62,2.97,2.62,6.28,0,27.07-5.42,33.69-7.69,1.22-.51,3.33-1.21,4.72-1.21,2.27,0,2.62,2.43,3.31,4.88,.7,2.8,1.58,7.88,1.58,10.83,0,2.79-1.92,3.33-6.28,4.19-9.43,1.75-30.04,4.88-39.81,5.93-5.77,.71-5.94,1.93-8.03,10.12-.53,2.45-1.41,5.6-2.45,9.44-.36,.88-.53,2.27-.53,3.14,0,1.04,.53,1.58,1.75,1.58,.7,0,1.39-.36,1.92-.71,10.48-5.93,18.33-9.43,30.55-9.43,21.48,0,35.44,14.67,35.44,36.15s-15.01,35.43-35.27,40.84c-10.65,2.8-25.32,4.89-36.49,4.89-5.76,0-6.63-.87-7.68-4.54-.87-2.62-2.27-8.9-2.27-11.53,0-2.26,1.58-3.65,3.67-3.65,2.27,0,7.51,1.21,14.15,1.21,18.15,0,45.92-5.23,45.92-28.28,0-10.31-6.81-18.17-17.29-18.17-15.18,0-33.34,9.61-42.25,21.84-1.22,1.56-2.79,3.84-4.89,3.84-4.01,0-13.96-4.89-13.96-9.78,0-2.27,1.56-5.59,2.45-7.68,4.54-10.31,6.81-18.34,9.6-28.99,.36-1.22,.88-3.14,.88-4.36,0-1.75-1.22-2.62-2.8-2.62-1.05,0-2.62,.17-3.67,.17-4.01,.17-17.63,1.75-21.13,1.75-2.62,0-3.84-1.05-4.54-3.5-.88-2.45-1.92-9.08-1.92-11.53,0-4.52,2.79-4.35,3.67-4.35,2.45,0,12.74,.68,19.72,.68,12.4,0,14.33-.51,15.89-4.18,1.22-3.14,3.31-18.17,3.67-22.18,.36-2.45,.17-6.28,2.97-6.28,1.75,0,20.07,5.06,20.07,8.9Z"/><path class="cls-1" d="M367.21,174.67c-4.72,0-9.78,.36-13.79,.36s-3.85-2.09-3.85-7.32-.17-7.34,3.85-7.34c4.36,0,9.07,.34,13.79,.34h30.21c4.71,0,9.6-.34,13.96-.34,3.84,0,3.67,1.91,3.67,7.34s.17,7.32-3.67,7.32-9.26-.36-13.96-.36h-30.21Zm23.74,106.85c0-2.79-1.05-4.01-3.84-4.01h-7.86c-2.62,0-4.01,1.22-4.01,4.01v1.76c0,4.01-1.75,4.18-8.73,4.18s-8.73-.17-8.73-4.18c0-4.38,.17-8.73,.17-13.11v-21.47c0-3.67-.17-7.34-.17-11,0-5.76,3.14-7.51,8.37-7.51,3.31,0,6.81,.17,10.12,.17h13.11c3.31,0,6.45-.17,9.6-.17,5.23,0,8.39,1.75,8.39,7.51,0,3.67-.18,7.34-.18,11v21.47c0,4.38,.36,8.73,.36,13.28,0,4.01-2.27,4.01-8.39,4.01s-8.2,0-8.2-4.18v-1.76Zm-15.54-83.45c-4.36,0-9.08,.36-12.4,.36-3.67,0-3.67-2.09-3.67-7.34s0-7.15,3.67-7.15c3.31,0,8.03,.34,12.4,.34h14.67c4.36,0,8.9-.34,12.21-.34,3.85,0,3.67,2.09,3.67,7.15s.18,7.34-3.67,7.34-7.85-.36-12.21-.36h-14.67Zm0,23.74c-4.36,0-8.73,.18-12.4,.18s-3.67-1.75-3.67-7.34c0-5.25,0-7.34,3.67-7.34,2.97,0,7.68,.36,12.4,.36h14.67c4.54,0,9.43-.36,12.21-.36,3.85,0,3.67,2.09,3.67,7.34s.18,7.34-3.67,7.34-7.85-.18-12.21-.18h-14.67Zm11,42.25c2.97,0,4.54-1.73,4.89-4.71v-10.65c-.36-2.97-1.92-4.55-4.89-4.89h-6.47c-3.14,.34-4.88,1.92-4.88,4.89v10.65c0,2.97,1.73,4.71,4.88,4.71h6.47Zm79.61-89.57c0,3.5,1.58,4.89,4.89,4.89h9.78c6.28,0,12.57-.34,18.85-.34,4.72,0,4.54,2.27,4.54,8.37s.18,8.56-4.54,8.56c-6.28,0-12.57-.36-18.85-.36h-9.78c-3.31,0-4.89,1.39-4.89,4.72v15.35c0,3.5,1.58,4.89,4.89,4.89h1.92c4.19,0,8.37-.17,12.57-.17,5.06,0,9.43,.88,9.43,6.99,0,3.67-.34,7.15-.34,10.82v31.77c0,4.55,.34,8.9,.34,13.45,0,4.01-2.45,3.84-8.9,3.84s-9.08,.17-9.08-3.84v-1.22c0-2.79-1.21-4.01-3.84-4.01h-30.03c-2.8,0-4.02,1.22-4.02,4.01v1.05c0,3.84-2.09,3.84-9.07,3.84s-8.91,0-8.91-3.84c0-4.55,.36-8.91,.36-13.45v-31.6c0-3.67-.17-7.15-.17-10.65,0-6.11,4.18-7.17,9.26-7.17,4.18,0,8.37,.17,12.74,.17h1.05c3.48,0,4.89-1.39,4.89-4.89v-15.35c0-3.33-1.41-4.72-4.89-4.72h-6.47c-6.28,0-12.57,.36-18.85,.36-4.89,0-4.72-2.27-4.72-8.56s0-8.37,4.72-8.37c6.28,0,12.57,.34,18.85,.34h6.47c3.48,0,4.89-1.39,4.89-4.89v-11.52c0-3.16-1.41-4.55-4.55-4.38-3.84,.37-14.83,1.58-18.15,1.58-2.45,0-4.36-.7-5.59-2.97-1.22-2.09-2.62-8.2-2.62-10.63,0-2.99,2.09-3.16,7.34-3.33,21.99-.88,40.86-2.97,61.29-11.52,.51-.18,1.39-.54,1.92-.54,1.73,0,5.06,4.55,7.85,8.73,1.05,1.41,4.19,5.43,4.19,7.17,0,.71-.53,1.56-1.39,1.56s-1.92-.17-2.62-.51c-.71-.17-1.58-.34-2.45-.34-1.05,0-2.45,.51-3.5,.85-6.11,2.27-13.98,4.21-20.26,5.77-3.48,.88-4.54,2.27-4.54,5.76v14.32Zm6.45,88.34c2.97-.34,4.72-1.91,4.72-4.88v-17.64c-.36-2.96-1.75-4.54-4.72-4.89h-28.97c-2.97,.36-4.55,1.93-4.89,4.89v17.64c.34,2.97,1.92,4.54,4.89,4.88h28.97Z"/><path class="cls-1" d="M611.4,142.2c0,.88-.7,1.39-1.58,1.93-2.45,1.22-3.67,1.39-6.11,7.68-1.56,4.18-2.96,8.56-4.36,12.74-.34,.88-.51,1.58-.51,2.45,0,2.97,2.26,3.67,4.71,4.01,5.94,.71,11.87,1.22,17.81,1.41,3.31,0,5.93-.18,5.93,3.31,0,2.62-1.04,8.73-1.92,11.35-.7,2.45-1.39,3.85-3.84,3.85-5.06,0-18.68-1.75-23.74-2.63-.53-.17-1.05-.34-1.58-.34-2.79,0-4.01,1.92-4.71,4.18-.53,2.1-2.97,13.11-2.97,14.5,0,3.67,3.67,3.84,6.11,4.01,5.23,.54,10.48,.71,15.71,.71,4.72,0,5.25,1.22,5.25,2.96,0,3.5-1.05,8.39-2.27,11.71-.88,2.62-1.92,4.01-4.89,4.01-4.01,0-12.23-1.22-16.41-1.75-.71-.18-2.27-.36-2.8-.36-4.72,0-4.72,4.38-4.72,11.89,0,15.18,8.03,23.22,23.23,23.22,7.86,0,19.9-2.09,25.32-8.2,3.14-3.5,3.84-7.86,3.84-12.4,0-8.56-2.97-17.29-5.94-25.32-.34-.87-.7-2.09-.7-3.14,0-4.19,12.92-6.45,14.84-6.45,2.8,0,3.31,2.79,4.72,6.63,3.31,9.44,5.76,20.43,5.76,30.57,0,27.05-24.96,36.48-48.19,36.48-26.36,0-41.9-15.18-41.9-41.73,0-4.36,.7-11,.7-12.75,0-3.84-2.97-4.89-6.98-6.11-3.5-1.04-6.99-2.45-10.31-4.18-1.92-1.05-3.31-1.93-3.31-4.19,0-1.04,1.75-14.84,6.11-14.84,1.56,0,3.14,1.05,4.36,1.75,2.26,1.56,8.54,4.89,11.17,4.89,2.96,0,3.48-2.45,4.54-7.51,.36-1.93,1.05-4.19,1.56-6.81,.18-1.22,.71-2.8,.71-3.85,0-3.84-3.14-4.89-5.59-5.74-12.23-4.72-15.72-6.3-15.72-9.44,0-2.96,2.8-15.01,6.47-15.01,1.22,0,2.96,1.22,4.01,1.92,5.06,2.97,6.64,3.67,11.87,6.11,.88,.36,1.41,.53,2.27,.53,2.79,0,3.5-2.27,4.01-4.19,1.58-5.93,5.42-18.33,6.81-23.39,.53-1.93,.88-3.5,2.63-3.5,1.22,0,5.59,1.73,8.73,2.79,2.96,1.05,11.87,3.5,11.87,6.28Z"/><path class="cls-1" d="M71.49,369.16c.87,.36,2.79,.87,2.79,2.09s-1.22,1.93-2.79,3.16c-1.39,1.22-2.62,7.32-3.14,9.24-.53,1.39-1.92,6.99-1.92,7.86,0,1.22,.7,2.26,1.92,2.26s8.37-2.09,9.95-2.62c.53-.17,1.22-.34,1.75-.34,2.09,0,2.26,3.14,2.62,5.23,.34,2.45,.87,6.81,.87,9.26,0,3.85-2.09,4.19-18.15,7.15-6.28,1.05-6.11,2.27-8.2,8.05-7.69,21.47-17.64,42.25-28.46,62.16-1.05,1.73-1.58,2.45-3.5,2.45-3.84,0-15.54-5.06-15.54-8.73,0-1.58,2.27-4.89,3.14-6.28,7.17-11.71,15.54-27.77,20.78-40.35,.87-1.91,4.01-9.24,4.01-10.63,0-1.05-.87-2.27-2.45-2.27-1.39,0-14.83,1.73-18.85,1.73-2.97,0-3.67-1.56-4.36-5.57-.36-2.1-1.22-8.39-1.22-10.14,0-2.26,1.22-2.8,3.14-2.8h8.03c5.94,0,12.04-.17,17.98-.85,2.27-.36,3.84-.54,5.23-2.8,2.63-4.36,5.59-23.76,5.59-29.33,0-1.22,0-2.97,1.58-2.97,1.92,0,16.41,4.19,19.21,5.06Zm25.14,52.03c1.93,.53,3.5,1.58,3.5,3.65,0,.36-.34,5.6-.34,9.27,0,5.06,.87,30.2,1.73,33.86,.53,2.62,2.8,3.33,5.42,4.36,.53,.18,1.22,.53,1.75,.7,4.01,1.58,24.62,11.17,24.62,15.37,0,2.8-6.47,12.75-10.83,12.75-1.75,0-3.31-1.58-4.54-2.45-2.62-1.93-11.17-8.05-13.98-8.05-1.92,0-2.62,2.45-2.79,4.02-2.1,12.75-12.4,17.1-24.27,17.1-14.15,0-30.74-7.51-30.74-23.74s15.2-21.64,28.99-21.64h4.54c2.1,0,3.67-.88,3.67-2.97,0-5.59-2.62-30.91-3.14-37.72,0-.88-.17-1.56-.17-2.45,0-2.79,1.56-3.84,4.18-3.84,3.33,0,9.26,1.05,12.4,1.75Zm-32.64,66.52c0,5.4,6.98,8.2,11.52,8.2,6.3,0,9.08-3.31,9.08-9.43,0-3.5-.17-5.42-8.9-5.42-4.19,0-11.7,1.05-11.7,6.64Z"/><path class="cls-1" d="M201.32,443.71c12.91-25.66,21.13-38.06,36.48-61.63,2.63-4.19,4.89-7.86,7.17-12.06,.53-.87,1.39-2.62,2.62-2.62,1.58,0,8.03,5.23,9.78,6.64,1.75,1.22,8.03,5.59,8.03,7.51s-1.58,2.62-3.14,2.8c-1.92,.34-3.14,.87-4.55,2.26-3.48,3.84-8.02,10.14-10.99,14.32-2.45,3.33-17.64,25.49-17.64,27.94,0,.87,.88,1.75,1.75,1.75,1.05,0,2.27-.7,3.14-1.22,5.77-3.14,11.87-5.94,18.51-5.94,6.98,0,15.54,3.67,18.51,10.31,1.39,3.31,1.92,7.34,1.92,10.99,0,5.77-1.22,11.36-2.27,16.95-1.04,4.72-2.79,12.57-2.79,17.12,0,2.96,1.04,6.63,4.54,6.63,9.78,0,26.37-21.13,31.77-28.8,.88-1.05,2.1-2.45,3.5-2.45,3.14,0,9.08,13.79,9.08,16.24,0,1.39-1.05,2.79-1.93,3.84-4.01,4.01-8.02,8.03-12.21,11.89-9.61,8.73-21.48,18.33-35.1,18.33-12.4,0-17.46-10.65-17.46-21.65,0-6.81,1.05-13.62,2.27-20.24,.87-4.72,1.92-9.44,1.92-14.16s-1.58-8.02-6.64-8.02-10.82,2.45-15.01,4.89c-7.34,4.01-12.92,9.07-17.81,15.88-6.98,9.43-13.09,25.32-16.06,36.67-.51,2.27-.87,5.42-3.84,5.42-2.79,0-16.76-5.06-16.76-8.03,0-.17,2.97-7.34,3.14-7.68,6.47-14.67,12.92-29.34,20.09-43.83Z"/><path class="cls-1" d="M420.88,369.16c.87,.36,2.79,.87,2.79,2.09s-1.22,1.93-2.79,3.16c-1.39,1.22-2.62,7.32-3.14,9.24-.53,1.39-1.92,6.99-1.92,7.86,0,1.22,.7,2.26,1.92,2.26s8.37-2.09,9.95-2.62c.53-.17,1.22-.34,1.75-.34,2.09,0,2.26,3.14,2.62,5.23,.34,2.45,.87,6.81,.87,9.26,0,3.85-2.09,4.19-18.15,7.15-6.28,1.05-6.11,2.27-8.2,8.05-7.69,21.47-17.64,42.25-28.46,62.16-1.05,1.73-1.58,2.45-3.5,2.45-3.84,0-15.54-5.06-15.54-8.73,0-1.58,2.27-4.89,3.14-6.28,7.17-11.71,15.54-27.77,20.78-40.35,.87-1.91,4.01-9.24,4.01-10.63,0-1.05-.87-2.27-2.45-2.27-1.39,0-14.83,1.73-18.85,1.73-2.97,0-3.67-1.56-4.36-5.57-.36-2.1-1.22-8.39-1.22-10.14,0-2.26,1.22-2.8,3.14-2.8h8.03c5.94,0,12.04-.17,17.98-.85,2.27-.36,3.84-.54,5.23-2.8,2.63-4.36,5.59-23.76,5.59-29.33,0-1.22,0-2.97,1.58-2.97,1.92,0,16.41,4.19,19.21,5.06Zm25.14,52.03c1.93,.53,3.5,1.58,3.5,3.65,0,.36-.34,5.6-.34,9.27,0,5.06,.87,30.2,1.73,33.86,.53,2.62,2.8,3.33,5.42,4.36,.53,.18,1.22,.53,1.75,.7,4.01,1.58,24.62,11.17,24.62,15.37,0,2.8-6.47,12.75-10.83,12.75-1.75,0-3.31-1.58-4.54-2.45-2.62-1.93-11.17-8.05-13.98-8.05-1.92,0-2.62,2.45-2.79,4.02-2.1,12.75-12.4,17.1-24.27,17.1-14.15,0-30.74-7.51-30.74-23.74s15.2-21.64,28.99-21.64h4.54c2.1,0,3.67-.88,3.67-2.97,0-5.59-2.62-30.91-3.14-37.72,0-.88-.17-1.56-.17-2.45,0-2.79,1.56-3.84,4.18-3.84,3.33,0,9.26,1.05,12.4,1.75Zm-32.64,66.52c0,5.4,6.98,8.2,11.52,8.2,6.3,0,9.08-3.31,9.08-9.43,0-3.5-.17-5.42-8.9-5.42-4.19,0-11.7,1.05-11.7,6.64Z"/><path class="cls-1" d="M646.91,398.14c11.69,11.69,17.63,26.36,17.63,42.95,0,24.27-12.75,45.05-34.05,56.4-4.01,2.09-14.84,6.98-19.02,6.98-4.55,0-11.7-10.82-11.7-14.66,0-1.76,2.62-2.1,4.36-2.45,22.87-5.43,40.86-20.44,40.86-45.41,0-18.68-9.78-35.44-27.94-41.73-1.58-.53-5.08-1.58-6.64-1.58-4.02,0-4.02,3.84-4.19,6.82-1.92,25.48-8.03,56.55-24.79,76.64-5.76,6.98-13.43,13.43-23.05,13.43-10.65,0-19.04-7.68-23.74-16.58-3.84-7.17-5.42-16.59-5.42-24.79,0-40.86,31.25-73.33,72.46-73.33,17.1,0,32.83,5.06,45.22,17.29Zm-67.93,5.06c-19.9,9.43-31.42,28.11-31.42,50.28,0,6.45,2.26,22.7,11.17,22.7s18.5-19.9,23.39-37.73c2.27-8.37,5.59-25.66,5.59-34.04,0-1.75-.87-3.16-2.79-3.16-1.39,0-4.55,1.22-5.94,1.93Z"/><path class="cls-1" d="M712.48,392.54c25.49-1.56,50.98-4.18,76.3-7.15,13.26-1.58,26.53-3.31,39.64-5.42,.7-.17,1.56-.17,2.26-.17,2.62,0,2.97,2.27,3.33,4.36,.7,2.97,1.56,9.78,1.56,12.75,0,3.84-3.67,3.5-7.86,3.67-10.12,.17-19.02,.17-28.97,3.67-13.45,4.89-22.87,13.43-29.68,26.02-5.06,9.24-8.39,20.07-8.39,30.72,0,20.26,12.92,25.15,30.74,25.15,2.97,0,6.81-.18,8.73-.18,2.62,0,4.01,.18,4.01,2.97,0,3.5-1.21,11.17-2.62,14.32-1.22,2.62-2.62,2.97-5.59,2.97-29.68,0-55.18-9.44-55.18-43.47,0-17.81,7.34-37.02,19.21-50.11,1.92-2.09,2.97-3.31,2.97-4.19,0-1.56-1.39-2.09-2.62-2.09s-9.26,1.39-11,1.58c-11.7,1.73-27.41,4.18-38.58,7.15-.87,.17-1.75,.36-2.62,.36-2.45,0-3.33-3.84-3.84-5.77-.71-2.96-1.92-9.61-1.92-12.57,0-4.55,2.43-4.01,10.12-4.55Z"/><g><path class="cls-3" d="M853.68,417.22c0-7.84,6.35-14.19,14.19-14.19,1,0,1.98,.11,2.92,.31-1.96-5.49-7.15-9.44-13.32-9.44-7.84,0-14.19,6.35-14.19,14.19,0,6.84,4.84,12.54,11.27,13.89-.53-1.49-.88-3.08-.88-4.76Z"/><path class="cls-4" d="M855.12,422.47l-.64-.13c-6.7-1.4-11.56-7.39-11.56-14.24,0-8.03,6.53-14.56,14.56-14.56,6.1,0,11.59,3.89,13.66,9.68l.22,.61-.64-.14c-.95-.2-1.9-.3-2.84-.3-7.62,0-13.83,6.2-13.83,13.83,0,1.51,.28,3.03,.86,4.64l.22,.61Zm2.35-28.2c-7.62,0-13.83,6.2-13.83,13.83,0,6.29,4.32,11.82,10.35,13.38-.46-1.46-.69-2.86-.69-4.25,0-8.03,6.53-14.56,14.56-14.56,.78,0,1.56,.07,2.35,.19-2.12-5.16-7.16-8.59-12.74-8.59Z"/></g><g><path class="cls-3" d="M876.25,426.42c0-7.84,6.35-14.19,14.19-14.19,3.57,0,6.8,1.37,9.29,3.54-1.96-5.49-7.15-9.45-13.32-9.45-7.84,0-14.19,6.35-14.19,14.19,0,4.27,1.92,8.05,4.9,10.65-.53-1.49-.87-3.07-.87-4.74Z"/><path class="cls-4" d="M877.93,432.36l-1.05-.92c-3.19-2.79-5.02-6.77-5.02-10.92,0-8.03,6.53-14.56,14.56-14.56,6.1,0,11.6,3.89,13.67,9.69l.47,1.32-1.05-.92c-2.55-2.23-5.77-3.45-9.05-3.45-7.62,0-13.83,6.2-13.83,13.83,0,1.5,.28,3.01,.85,4.62l.47,1.32Zm8.48-25.67c-7.62,0-13.83,6.2-13.83,13.83,0,3.48,1.36,6.84,3.76,9.4-.31-1.19-.47-2.34-.47-3.49,0-8.03,6.53-14.56,14.56-14.56,3,0,5.94,.97,8.42,2.75-2.27-4.79-7.11-7.93-12.44-7.93Z"/></g><g><circle class="cls-1" cx="134.84" cy="408.28" r="14.19"/><path class="cls-3" d="M134.84,423.93c-8.63,0-15.65-7.02-15.65-15.65s7.02-15.66,15.65-15.66,15.65,7.02,15.65,15.66-7.02,15.65-15.65,15.65Zm0-28.38c-7.02,0-12.73,5.71-12.73,12.73s5.71,12.73,12.73,12.73,12.73-5.71,12.73-12.73-5.71-12.73-12.73-12.73Z"/></g><circle class="cls-1" cx="134.82" cy="408.09" r="14.19"/><g><path class="cls-3" d="M158.55,23.92h158.17c18.88,0,35.54,13.97,37.18,32.79,1.42,16.37-8.15,30.57-22.12,36.35-2.42,1-3.57,3.76-2.46,6.14l4.61,9.84c.55,1.17-.76,2.34-1.86,1.66l-22.88-14.1c-.72-.44-1.54-.68-2.39-.68H159.78c-19.17,0-35.92-14.47-37.16-33.6-1.36-20.97,15.25-38.4,35.92-38.4Z"/><path class="cls-4" d="M332.76,111.4c-.32,0-.65-.09-.95-.28l-22.88-14.1c-.64-.39-1.37-.6-2.12-.6H159.78c-19.88,0-36.42-14.97-37.65-34.07-.66-10.22,2.81-19.95,9.79-27.38,6.88-7.34,16.58-11.54,26.64-11.54h158.17c19.51,0,36.06,14.6,37.68,33.24,1.39,15.93-7.62,30.74-22.42,36.85-1.07,.44-1.89,1.27-2.31,2.34-.4,1.02-.36,2.13,.11,3.13l4.61,9.85c.35,.74,.18,1.57-.43,2.11-.35,.31-.77,.46-1.19,.46ZM158.55,24.42c-9.78,0-19.22,4.09-25.91,11.23-6.78,7.23-10.16,16.69-9.52,26.64,1.2,18.58,17.3,33.14,36.66,33.14h147.03c.94,0,1.85,.26,2.65,.75l22.88,14.1c.37,.23,.74,.11,.95-.08,.22-.19,.38-.54,.19-.94l-4.61-9.85c-.58-1.25-.63-2.64-.13-3.92,.5-1.3,1.55-2.36,2.86-2.9,14.39-5.95,23.16-20.35,21.81-35.84-1.58-18.13-17.69-32.33-36.68-32.33H158.55Z"/></g><g><path class="cls-1" d="M293.07,1.46H134.9c-18.88,0-35.54,13.97-37.18,32.79-1.42,16.37,8.15,30.57,22.12,36.35,2.42,1,3.57,3.76,2.46,6.14l-4.61,9.84c-.55,1.17,.76,2.34,1.86,1.66l22.88-14.1c.72-.44,1.54-.68,2.39-.68h147.03c19.17,0,35.92-14.47,37.16-33.6,1.36-20.97-15.25-38.4-35.92-38.4Z"/><path class="cls-1" d="M118.86,89.9c-.66,0-1.31-.24-1.84-.71-.92-.82-1.19-2.12-.66-3.23l4.61-9.84c.35-.76,.38-1.6,.08-2.37-.32-.81-.95-1.45-1.78-1.79-15.19-6.28-24.44-21.48-23.01-37.83C97.92,14.99,114.89,0,134.9,0h158.17c10.32,0,20.28,4.32,27.34,11.85,7.16,7.63,10.72,17.62,10.04,28.11-1.27,19.61-18.23,34.97-38.61,34.97H144.81c-.57,0-1.13,.16-1.62,.46l-22.88,14.1c-.45,.28-.95,.42-1.45,.42ZM134.9,2.93c-18.5,0-34.19,13.82-35.72,31.45-1.31,15.07,7.22,29.08,21.22,34.87,1.55,.64,2.79,1.89,3.39,3.44,.59,1.53,.54,3.19-.16,4.67l-4.38,9.35,22.42-13.81c.95-.58,2.04-.89,3.15-.89h147.03c18.85,0,34.53-14.16,35.7-32.24,.63-9.67-2.66-18.88-9.26-25.92-6.6-7.04-15.55-10.92-25.2-10.92H134.9Z"/></g><g><path class="cls-2" d="M293.08,1.44H134.9c-18.88,0-35.54,13.97-37.18,32.79-1.42,16.37,8.15,30.57,22.12,36.35,2.42,1,3.57,3.76,2.46,6.14l-4.61,9.84c-.55,1.17,.76,2.34,1.86,1.66l22.88-14.1c.72-.44,1.54-.68,2.39-.68h147.03c19.17,0,35.92-14.47,37.16-33.6,1.36-20.97-15.25-38.4-35.92-38.4Z"/><path class="cls-1" d="M118.86,88.63c-.36,0-.71-.13-1-.39-.51-.45-.65-1.15-.36-1.76l4.61-9.85c.5-1.07,.54-2.26,.11-3.36-.44-1.12-1.33-2.03-2.47-2.5-14.68-6.07-23.62-20.76-22.24-36.56C99.12,15.72,115.55,1.24,134.9,1.24h158.17c9.97,0,19.6,4.17,26.42,11.45,6.92,7.38,10.36,17.03,9.71,27.17-1.23,18.95-17.64,33.8-37.36,33.8H144.82c-.8,0-1.59,.22-2.28,.65l-22.88,14.1c-.25,.15-.53,.23-.8,.23ZM134.9,1.65c-19.14,0-35.38,14.32-36.97,32.6-1.36,15.62,7.48,30.14,21.99,36.14,1.24,.51,2.22,1.51,2.69,2.73,.47,1.2,.42,2.51-.12,3.69l-4.61,9.85c-.25,.54-.02,1.03,.26,1.28,.28,.25,.79,.43,1.3,.11l22.88-14.1c.75-.46,1.61-.71,2.5-.71h147.03c19.51,0,35.74-14.68,36.95-33.41,.65-10.02-2.76-19.56-9.6-26.86-6.74-7.19-16.26-11.32-26.12-11.32H134.9Z"/></g><g><path class="cls-1" d="M128.51,29.49c-1.41,.03-2.88,.05-4.36,.08-.24,0-.42,.08-.42,.34v5.25c0,5.75-.42,9.7-2.67,13.41-.26,.42-.63,.6-.99,.6-.71,0-1.46-.65-1.46-1.46,0-.23,.08-.47,.21-.71,1.67-2.8,2.33-6.3,2.33-11.42v-6.09c0-1.57,.78-2.35,2.35-2.35,6.22,0,10.66-.29,15.47-1.1,.08,0,.13-.03,.18-.03,.78,0,1.33,.78,1.33,1.46,0,.47-.24,.86-.81,.99-.31,.08-.65,.13-1.02,.21,0,9.12,.5,13.62,3.29,18.29,.13,.21,.18,.39,.18,.6,0,.78-.84,1.46-1.59,1.46-.37,0-.73-.16-.94-.55-2.95-5.31-3.45-10.9-3.48-19.47-1.49,.16-3.19,.26-5.02,.37v15.78c1.18-.18,2.14-.37,2.9-.52-.39-1.49-.81-2.9-1.04-3.63-.03-.1-.05-.21-.05-.29,0-.6,.6-.99,1.18-.99,.42,0,.84,.21,1.02,.68,.6,1.78,2.22,6.74,2.22,7.27,0,.68-.78,1.23-1.46,1.23-.44,0-.86-.23-.99-.84-.08-.39-.18-.81-.29-1.23-1.96,.42-5.49,1.1-10.11,1.41h-.05c-.71,0-1.18-.76-1.18-1.44,0-.52,.29-1.02,.97-1.05,1.57-.05,3.01-.16,4.31-.29v-15.99Z"/><path class="cls-1" d="M164.65,30.3v.76c0,.71-.65,1.07-1.28,1.07s-1.31-.37-1.31-1.07v-.76h-7.5v.76c0,.71-.65,1.07-1.28,1.07s-1.31-.37-1.31-1.07v-.76h-4.44c-.71,0-1.07-.6-1.07-1.2s.37-1.2,1.07-1.2h4.44v-.89c0-.73,.65-1.07,1.31-1.07s1.28,.34,1.28,1.07v.89h7.5v-.89c0-.73,.65-1.07,1.31-1.07s1.28,.34,1.28,1.07v.89h4.26c.73,0,1.07,.6,1.07,1.2s-.34,1.2-1.07,1.2h-4.26Zm-8.65,10.14c-.73,1.52-1.91,3.74-3.45,5.96,5.96-.31,10.27-.91,12.52-1.31-.65-.81-1.28-1.54-1.86-2.2-.21-.23-.29-.47-.29-.71,0-.6,.65-1.12,1.25-1.12,.26,0,.52,.1,.73,.31,1.49,1.57,3.24,3.61,4.86,5.83,.21,.29,.29,.57,.29,.86,0,.76-.68,1.36-1.31,1.36-.31,0-.63-.16-.84-.47-.42-.63-.84-1.23-1.25-1.8-1.91,.37-8.41,1.44-18.89,1.83h-.05c-.78,0-1.23-.68-1.23-1.33,0-.57,.34-1.1,1.07-1.1,.68,0,1.33-.03,1.96-.05,1.52-1.96,2.82-4.21,3.74-6.06h-5.64c-.71,0-1.07-.6-1.07-1.18s.37-1.18,1.07-1.18h21.25c.73,0,1.07,.57,1.07,1.18s-.34,1.18-1.07,1.18h-12.86Zm-6.85-5.15c-.71,0-1.07-.6-1.07-1.18s.37-1.18,1.07-1.18h18.22c.73,0,1.07,.57,1.07,1.18s-.34,1.18-1.07,1.18h-18.22Z"/><path class="cls-1" d="M195.17,30.72c.73,0,1.12,.65,1.12,1.31s-.34,1.23-.99,1.31c-2.48,.26-5.67,.39-7.74,.39,.03,2.35,.08,4.78,.1,6.77,3.06,.99,6.3,2.56,8.42,4.16,.39,.29,.55,.68,.55,1.07,0,.81-.65,1.59-1.46,1.59-.31,0-.65-.1-.97-.37-1.78-1.49-4.16-2.8-6.48-3.68,.03,.34,.05,.68,.05,.99,0,4.15-2.51,5.23-6.06,5.23s-6.4-1.83-6.4-4.97c0-3.35,2.56-5.02,6.93-5.02,.84,0,1.8,.1,2.82,.31-.05-4.13-.18-9.67-.31-12.83v-.08c0-.71,.71-1.07,1.41-1.07s1.41,.37,1.41,1.15v4.18c1.99-.03,4.91-.18,7.47-.44h.13Zm-10.09,11.68c-1.05-.26-2.04-.39-2.85-.39-2.95,0-4.18,.86-4.18,2.59,0,1.36,1.67,2.27,3.61,2.27,2.2,0,3.42-.71,3.42-2.98v-1.49Z"/><path class="cls-1" d="M210.61,49.59c-1.1,0-1.57-.71-1.57-1.44,0-.68,.47-1.38,1.23-1.38h.16c8.47,0,9.8-4.49,9.8-10.09,0-5.98-1.46-7.94-3.27-7.94-.63,0-1.28,.23-1.93,.6-2.27,1.25-5.25,7.13-6.72,12.13-.21,.71-.84,1.07-1.46,1.07-.73,0-1.46-.5-1.52-1.46-.1-1.67-.13-3.21-.13-4.68,0-3.11,.18-5.93,.6-9.3,.08-.78,.71-1.15,1.36-1.15,.73,0,1.52,.47,1.52,1.28,0,.08,0,.18-.03,.26-.44,2.53-.76,5.28-.81,8.41,2.09-4.94,4.7-9.75,9.33-9.75,2.77,0,5.72,2.14,5.72,10.53,0,6.25-1.49,12.91-12.23,12.91h-.05Z"/><path class="cls-1" d="M232.64,49.04c-1.25,0-1.88-.63-1.88-1.88v-13.69c0-1.25,.63-1.88,1.88-1.88h1.41v-2.48h-2.82c-.71,0-1.07-.6-1.07-1.18s.37-1.18,1.07-1.18h10.17c.73,0,1.07,.57,1.07,1.18s-.34,1.18-1.07,1.18h-2.69v2.48h1.23c1.25,0,2.01,.63,2.01,1.88v13.69c0,1.25-.63,1.88-1.88,1.88h-7.42Zm7.08-8.28h-.63c-1.28,0-2.25-.78-2.25-2.22v-4.68h-.97c-.03,3.32-.39,4.86-1.23,6.51-.23,.44-.57,.63-.91,.63-.29,0-.58-.13-.76-.37v1.7h6.74v-1.57Zm-6.35-6.9c-.26,0-.39,.13-.39,.39v5.38c.71-1.33,1.12-2.69,1.18-5.78h-.78Zm6.35,10.72h-6.74v1.72c0,.26,.13,.39,.39,.39h5.96c.26,0,.39-.13,.39-.39v-1.72Zm-2.88-15.47h-.97v2.48h.97v-2.48Zm2.88,5.15c0-.26-.13-.39-.39-.39h-.76v4.34c0,.47,.18,.73,1.15,.73v-4.68Zm7.29,14.61c-2.77,0-3.74-.94-3.74-3.37v-8.36c0-1.25,.63-1.88,1.88-1.88h4.73c.26,0,.39-.13,.39-.39v-5.36c0-.26-.13-.39-.39-.39h-5.98c-.71,0-1.07-.6-1.07-1.18s.37-1.18,1.07-1.18h6.85c1.25,0,1.88,.63,1.88,1.88v7.08c0,1.25-.63,1.88-1.88,1.88h-4.73c-.26,0-.39,.13-.39,.39v7.16c0,1.15,.34,1.36,1.93,1.36h1.12c1.7,0,2.06-.68,2.51-3.63,.1-.78,.65-1.15,1.18-1.15,.65,0,1.33,.52,1.33,1.46,0,.08,0,.18-.03,.29-.68,4.44-1.57,5.38-4.47,5.38h-2.2Z"/><path class="cls-1" d="M260.6,35.74c-.16,.24-.31,.44-.47,.63-.26,.31-.58,.44-.86,.44-.65,0-1.23-.63-1.23-1.28,0-.23,.08-.44,.24-.65,1.44-1.83,2.77-5.07,3.61-8.26,.13-.47,.55-.68,.99-.68,.63,0,1.33,.42,1.33,1.1,0,.42-.55,2.35-1.31,4.29v17.14c0,.73-.55,1.07-1.1,1.07-.6,0-1.2-.39-1.2-1.07v-12.73Zm4.21-3.03c-.71,0-1.07-.6-1.07-1.18s.37-1.18,1.07-1.18h15.65c.73,0,1.07,.57,1.07,1.18s-.34,1.18-1.07,1.18h-15.65Zm1.39,16.2c-1.02,0-1.52-.5-1.52-1.52v-4.23c0-1.02,.5-1.52,1.52-1.52h12.88c1.02,0,1.52,.5,1.52,1.52v4.23c0,1.02-.5,1.52-1.52,1.52h-12.88Zm.16-12.57c-.71,0-1.07-.6-1.07-1.18s.37-1.18,1.07-1.18h12.65c.73,0,1.07,.58,1.07,1.18s-.34,1.18-1.07,1.18h-12.65Zm0,3.74c-.71,0-1.07-.6-1.07-1.18s.37-1.18,1.07-1.18h12.65c.73,0,1.07,.57,1.07,1.18s-.34,1.18-1.07,1.18h-12.65Zm.37-10.98c-.71,0-1.07-.6-1.07-1.18s.37-1.18,1.07-1.18h11.84c.73,0,1.07,.57,1.07,1.18s-.34,1.18-1.07,1.18h-11.84Zm11.52,15.21c0-.21-.11-.31-.31-.31h-10.58c-.21,0-.31,.1-.31,.31v1.88c0,.21,.1,.31,.31,.31h10.58c.21,0,.31-.1,.31-.31v-1.88Z"/><path class="cls-1" d="M299.07,43.58v4.7c0,.81-.68,1.18-1.38,1.18s-1.49-.42-1.49-1.18v-4.7h-7.11c-1.33,0-2.35-1.07-2.35-2.35v-9.33c0-1.36,1.1-2.35,2.35-2.35h7.11v-2.33c0-.86,.73-1.28,1.44-1.28s1.44,.42,1.44,1.28v2.33h7.24c1.23,0,2.33,1.02,2.33,2.35v9.33c0,1.31-1.05,2.35-2.33,2.35h-7.24Zm-2.87-11.58h-5.85c-.47,0-.84,.37-.84,.84v7.45c0,.47,.37,.84,.84,.84h5.85v-9.12Zm9.67,.84c0-.47-.37-.84-.84-.84h-5.96v9.12h5.96c.47,0,.84-.37,.84-.84v-7.45Z"/></g><g><path class="cls-3" d="M490.32,394.25c-.98-.22-2-.35-3.05-.35-7.84,0-14.19,6.35-14.19,14.19s5.8,13.54,13.13,14.09l4.1-27.93Z"/><path class="cls-4" d="M486.53,422.57l-.34-.03c-7.55-.57-13.47-6.92-13.47-14.45,0-8.03,6.53-14.56,14.56-14.56,1.01,0,2.03,.12,3.12,.36l.33,.07-.05,.34-4.15,28.27Zm.74-28.3c-7.62,0-13.82,6.2-13.82,13.83,0,7.04,5.44,12.99,12.46,13.69l4-27.25c-.92-.18-1.78-.27-2.64-.27Z"/></g><circle class="cls-1" cx="74.78" cy="129.36" r="14.19"/><circle class="cls-1" cx="381.84" cy="126.99" r="14.19"/></svg>